<svg width="29" height="29" viewBox="0 0 29 29" fill="none" xmlns="http://www.w3.org/2000/svg">
<path d="M14.1667 0C6.34667 0 0 6.34667 0 14.1667C0 21.9867 6.34667 28.3333 14.1667 28.3333C21.9867 28.3333 28.3333 21.9867 28.3333 14.1667C28.3333 6.34667 21.9867 0 14.1667 0ZM14.1667 4.25C16.5183 4.25 18.4167 6.14833 18.4167 8.5C18.4167 10.8517 16.5183 12.75 14.1667 12.75C11.815 12.75 9.91667 10.8517 9.91667 8.5C9.91667 6.14833 11.815 4.25 14.1667 4.25ZM14.1667 24.3667C10.625 24.3667 7.49417 22.5533 5.66667 19.805C5.70917 16.9858 11.3333 15.4417 14.1667 15.4417C16.9858 15.4417 22.6242 16.9858 22.6667 19.805C20.8392 22.5533 17.7083 24.3667 14.1667 24.3667Z" fill="black"/>
</svg>
