<svg width="53" height="38" viewBox="0 0 53 38" fill="none" xmlns="http://www.w3.org/2000/svg">
<rect width="53" height="38" rx="8" fill="none" />
<path fill-rule="evenodd" clip-rule="evenodd" d="M24.5 25C20.0817 25 16.5 21.4183 16.5 17C16.5 12.5817 20.0817 9 24.5 9C28.9183 9 32.5 12.5817 32.5 17C32.5 18.8487 31.8729 20.551 30.8199 21.9056L36.2071 27.2929L34.7929 28.7071L29.4056 23.3199C28.051 24.3729 26.3487 25 24.5 25ZM30.5 17C30.5 20.3137 27.8137 23 24.5 23C21.1863 23 18.5 20.3137 18.5 17C18.5 13.6863 21.1863 11 24.5 11C27.8137 11 30.5 13.6863 30.5 17Z" fill="white"/>
</svg>
